<?xml version="1.0" standalone="no"?>
<!DOCTYPE svg PUBLIC "-//W3C//DTD SVG 20010904//EN"
 "http://www.w3.org/TR/2001/REC-SVG-20010904/DTD/svg10.dtd">
<svg version="1.0" xmlns="http://www.w3.org/2000/svg"
 width="771.000000pt" height="771.000000pt" viewBox="0 0 771.000000 771.000000"
 preserveAspectRatio="xMidYMid meet">
<metadata>
Created by potrace 1.14, written by Peter Selinger 2001-2017
</metadata>
<g transform="translate(0.000000,771.000000) scale(0.100000,-0.100000)"
fill="#000000" stroke="none">
<path d="M775 7678 c-57 -46 -65 -55 -58 -62 4 -3 1 -6 -6 -6 -15 0 -87 -79
-84 -92 2 -4 -3 -7 -10 -5 -6 1 -11 -4 -10 -10 2 -7 -1 -13 -6 -13 -5 0 -14
-15 -22 -32 -7 -18 -15 -35 -19 -38 -11 -10 -53 -105 -55 -125 0 -5 -3 -14 -7
-20 -7 -13 -35 -128 -43 -180 -13 -87 -15 -249 -2 -257 9 -6 9 -8 0 -8 -7 0
-11 -6 -8 -12 2 -7 6 -40 9 -73 3 -33 10 -85 17 -115 6 -30 12 -62 13 -70 5
-27 27 -102 36 -119 14 -26 23 -55 22 -66 -1 -5 9 -11 23 -11 13 -1 23 3 22 8
-1 6 5 13 13 15 9 3 11 1 5 -4 -17 -14 -17 -50 0 -57 10 -4 18 2 24 16 6 17 9
19 17 7 9 -14 10 -19 13 -40 0 -5 5 -8 9 -5 4 2 9 -5 9 -16 1 -12 7 -24 13
-28 6 -4 8 -14 4 -23 -4 -12 -1 -17 12 -17 14 0 15 -3 6 -12 -8 -8 -15 -8 -28
3 -14 11 -16 11 -10 1 6 -10 2 -13 -15 -10 -17 2 -23 9 -22 23 1 20 1 20 -13
1 -8 -11 -14 -15 -14 -9 0 7 -9 15 -20 18 -12 4 -17 11 -13 18 4 7 -2 5 -12
-3 -11 -9 -16 -10 -11 -2 4 7 2 12 -4 12 -6 0 -26 11 -44 25 -18 14 -36 22
-39 18 -4 -3 -7 -1 -7 5 0 6 8 10 18 10 9 0 26 3 37 7 16 5 17 5 5 -4 -13 -9
-13 -11 0 -11 10 0 11 -3 4 -8 -9 -5 -8 -10 2 -19 9 -9 15 -10 20 -2 4 8 9 7
16 -2 8 -11 9 -11 5 1 -2 8 -12 13 -22 12 -16 -3 -17 -1 -6 12 8 9 21 16 30
17 12 0 11 2 -4 8 -11 5 -23 7 -27 4 -4 -2 -5 4 -2 14 4 14 4 15 -4 4 -8 -10
-14 -11 -28 -1 -16 10 -16 11 -2 6 12 -3 22 2 29 17 9 17 9 20 -1 11 -9 -9
-20 -8 -43 5 -18 9 -34 19 -35 24 -2 4 -10 7 -18 7 -8 0 -14 5 -14 10 0 6 -9
10 -20 10 -11 0 -20 5 -20 10 0 6 -9 10 -20 10 -11 0 -20 5 -20 10 0 15 -30
12 -31 -2 -1 -7 -3 -24 -4 -38 -1 -14 -6 -34 -11 -45 -13 -31 -10 -192 5 -265
12 -58 43 -170 58 -210 3 -8 8 -24 10 -34 2 -11 8 -25 13 -31 5 -7 7 -15 3
-18 -3 -4 0 -7 7 -7 7 0 10 -3 7 -6 -3 -4 -1 -16 5 -28 7 -11 13 -23 13 -26 1
-3 8 -18 15 -35 7 -16 13 -33 12 -37 -1 -5 2 -8 8 -8 5 0 10 -6 10 -14 0 -7
18 -46 40 -86 22 -40 40 -74 40 -76 0 -2 16 -28 35 -58 19 -30 35 -59 35 -64
0 -14 -37 -6 -145 33 -55 20 -107 38 -115 40 -8 2 -16 4 -17 5 -2 2 -6 3 -10
4 -5 1 -25 10 -47 19 -21 9 -44 17 -51 17 -6 0 -15 3 -19 7 -16 16 -34 10 -30
-10 2 -11 6 -43 9 -71 9 -94 16 -140 31 -211 8 -38 17 -81 20 -95 4 -20 27
-83 58 -160 18 -45 87 -155 126 -201 70 -82 114 -122 197 -177 29 -19 53 -38
53 -41 0 -4 -16 -15 -36 -26 -94 -50 -101 -145 -19 -270 28 -43 128 -145 143
-145 6 0 12 -4 12 -8 0 -10 77 -62 91 -62 5 0 9 -5 9 -11 0 -5 4 -7 10 -4 5 3
10 2 10 -3 0 -9 76 -45 83 -39 2 1 11 -6 21 -16 10 -9 22 -15 27 -12 5 4 9 1
9 -5 0 -9 -48 -43 -75 -54 -15 -5 51 -128 88 -163 68 -66 79 -74 142 -108 68
-36 202 -82 264 -91 20 -3 42 -7 49 -9 18 -6 153 -19 254 -24 13 -1 17 -8 14
-23 -1 -12 2 -27 8 -33 55 -54 144 -94 220 -99 36 -3 40 -6 41 -32 1 -16 6
-45 12 -64 13 -42 13 -70 0 -70 -9 0 -36 -27 -84 -84 -13 -14 -23 -33 -23 -42
0 -9 -5 -12 -12 -8 -7 5 -9 2 -5 -8 3 -9 -2 -26 -10 -38 -17 -24 -24 -147 -12
-206 8 -39 67 -163 86 -183 25 -25 36 -64 38 -141 1 -42 10 -95 20 -120 26
-67 59 -130 68 -130 5 0 5 -5 1 -11 -4 -7 2 -9 17 -7 17 2 23 -1 21 -11 -3
-12 0 -12 12 -2 10 9 16 9 21 1 4 -6 13 -9 21 -6 8 3 14 1 14 -4 0 -6 -8 -10
-17 -10 -15 0 -14 -2 3 -15 16 -13 16 -14 2 -9 -10 3 -18 2 -18 -4 0 -5 -11
-7 -25 -5 -45 9 -122 -17 -157 -53 -18 -18 -33 -39 -33 -46 0 -7 -4 -19 -8
-26 -9 -14 -11 -56 -3 -87 2 -11 5 -25 5 -31 1 -6 12 -23 26 -38 13 -14 19
-26 13 -26 -5 0 -8 -6 -5 -14 3 -7 1 -18 -3 -22 -5 -5 -11 -18 -13 -29 -2 -11
-7 -28 -11 -37 -4 -9 -9 -22 -10 -30 -2 -7 -6 -20 -9 -28 -3 -8 -15 -44 -27
-80 -12 -36 -26 -74 -31 -85 -6 -12 -11 -27 -13 -35 -5 -25 -19 -54 -38 -80
-10 -14 -20 -34 -22 -45 -2 -11 -8 -29 -12 -39 -6 -15 -4 -18 7 -12 8 4 6 1
-3 -7 -10 -8 -16 -16 -14 -18 2 -2 7 -22 10 -43 7 -42 23 -69 36 -61 5 3 12 0
16 -6 4 -8 3 -9 -4 -5 -7 4 -12 3 -12 -3 0 -22 156 -126 212 -141 43 -12 123
2 150 27 15 13 20 13 33 3 9 -7 14 -18 12 -24 -2 -6 0 -22 5 -36 6 -14 12 -36
15 -50 5 -28 29 -69 52 -88 9 -7 55 -33 103 -56 48 -24 84 -47 80 -51 -4 -5 1
-5 12 -1 15 5 17 2 13 -14 -3 -11 -1 -20 3 -20 5 0 15 -7 24 -15 13 -13 15
-13 21 5 3 11 10 20 15 20 13 0 5 -33 -9 -38 -8 -3 -6 -9 6 -19 14 -12 12 -11
-9 1 -15 9 -34 16 -43 16 -9 0 -14 4 -11 8 2 4 -6 8 -20 8 -13 0 -24 -1 -24
-1 0 -1 26 -19 58 -41 31 -21 62 -43 67 -47 6 -4 48 -32 95 -62 47 -29 91 -59
98 -65 7 -6 16 -9 21 -5 5 3 11 1 13 -4 8 -25 386 -218 558 -286 52 -20 111
-43 130 -51 19 -7 49 -19 65 -25 17 -7 32 -13 35 -14 3 -1 57 -18 120 -39
l115 -37 160 56 c88 30 165 57 170 58 6 2 19 8 30 14 11 6 22 11 25 11 7 1 62
21 85 32 11 5 49 21 85 36 105 42 374 179 408 206 6 6 12 7 12 2 0 -5 4 -4 8
1 9 14 89 65 100 65 5 0 20 10 33 22 14 13 28 23 33 24 9 1 6 0 121 80 44 31
71 53 60 49 -11 -4 -27 -8 -35 -9 -8 0 -17 -3 -20 -6 -3 -3 -16 -11 -29 -18
-17 -10 -21 -10 -16 -1 5 7 0 18 -10 26 -11 7 -14 13 -9 13 6 0 15 -5 22 -12
16 -16 16 4 0 21 -11 11 -10 13 5 8 9 -4 17 -3 17 2 0 5 30 23 68 40 419 197
511 262 608 429 22 36 39 69 39 72 1 3 6 15 13 28 7 12 9 22 5 22 -4 0 -3 4 3
8 10 6 38 106 60 212 23 110 1 274 -51 387 -29 61 -124 162 -181 191 -44 22
-151 56 -175 55 -22 0 -19 49 4 53 9 1 17 -2 17 -8 0 -6 -6 -8 -13 -5 -8 3
-14 -1 -14 -9 0 -7 4 -11 9 -8 5 3 17 0 26 -7 14 -11 15 -11 5 0 -16 19 -5 40
18 34 29 -8 69 47 109 147 22 56 31 107 31 181 0 39 6 63 17 76 24 27 41 54
53 86 6 15 15 27 20 27 5 0 8 3 7 8 -1 4 7 34 16 66 33 109 8 257 -56 329 -43
49 -72 77 -79 77 -15 0 -18 32 -6 63 7 18 13 47 12 65 0 29 3 33 35 37 19 3
47 8 62 10 75 12 167 76 170 118 1 15 5 27 8 27 198 8 300 24 440 68 47 14 97
34 112 44 14 10 29 18 33 18 23 0 165 118 165 137 0 6 3 13 8 15 4 1 19 26 33
54 l26 51 -43 27 c-24 15 -44 29 -44 31 0 2 36 20 80 41 44 20 80 41 80 46 0
4 6 8 13 8 13 0 29 11 77 52 8 7 16 12 17 11 2 -2 11 4 21 12 9 9 29 26 43 38
51 44 126 156 133 199 1 7 4 18 7 23 12 19 2 70 -20 108 -21 34 -40 53 -26 25
4 -7 0 -5 -8 5 -8 9 -22 17 -31 17 -32 0 -15 35 32 65 26 16 55 38 65 49 9 10
17 16 17 12 0 -10 98 91 125 128 11 15 28 37 38 48 9 12 17 27 17 34 0 7 4 14
8 16 15 6 74 140 68 154 -3 8 -1 12 4 9 9 -5 35 69 46 131 3 15 7 31 9 35 3 4
7 26 10 49 3 24 8 46 10 50 2 4 7 55 11 114 l7 106 -47 -19 c-25 -11 -46 -18
-46 -15 0 3 -12 -2 -28 -10 -36 -21 -303 -108 -309 -102 -3 3 8 27 25 55 93
150 205 393 237 511 3 8 14 47 25 85 34 114 46 281 27 375 -4 19 -10 47 -13
63 -3 15 -10 25 -15 21 -5 -3 -7 -9 -4 -14 3 -5 -4 -7 -15 -5 -11 2 -20 -1
-20 -6 0 -6 -4 -8 -8 -5 -5 3 -18 -3 -29 -14 -12 -10 -24 -16 -27 -13 -3 4 -6
1 -6 -6 0 -7 -4 -9 -10 -6 -5 3 -10 1 -10 -5 0 -6 -4 -8 -10 -5 -6 3 -10 1
-10 -4 0 -6 -3 -10 -7 -9 -5 1 -19 -4 -32 -11 -28 -15 -28 -22 12 129 14 52
28 111 31 130 3 19 9 58 13 85 12 78 8 354 -6 417 -7 32 -12 59 -11 60 3 9
-52 154 -79 207 -36 73 -111 175 -154 211 -17 14 -43 37 -59 52 -15 15 -28 24
-28 21 0 -4 -5 -2 -12 5 -20 20 -37 14 -44 -15 -4 -16 -14 -38 -21 -50 -8 -12
-14 -24 -14 -28 1 -3 -6 -19 -14 -35 -9 -17 -13 -30 -10 -30 3 0 -1 -10 -10
-23 -8 -13 -12 -27 -8 -30 3 -4 1 -7 -5 -7 -7 0 -12 -9 -12 -19 0 -11 -5 -23
-11 -26 -6 -4 -8 -14 -5 -22 3 -8 1 -11 -4 -8 -6 3 -10 1 -10 -5 0 -6 -14 -41
-32 -78 -17 -37 -30 -70 -30 -74 1 -5 -3 -8 -8 -8 -6 0 -10 -6 -10 -14 0 -7
-7 -19 -15 -26 -8 -7 -12 -16 -9 -21 3 -5 0 -9 -5 -9 -6 0 -11 -7 -11 -15 0
-8 -4 -15 -9 -15 -5 0 -14 -13 -21 -30 -7 -16 -17 -30 -22 -30 -5 0 -7 -4 -4
-9 3 -5 -1 -11 -9 -15 -8 -3 -15 -12 -15 -21 0 -8 -4 -15 -10 -15 -5 0 -10 -7
-10 -15 0 -8 -5 -15 -12 -15 -6 0 -9 -3 -6 -6 3 -3 -5 -17 -18 -31 -13 -14
-24 -30 -24 -34 0 -5 -8 -18 -17 -28 -49 -53 -72 -81 -66 -81 3 0 -4 -9 -17
-20 -17 -15 -27 -17 -41 -9 -11 5 -19 14 -19 20 0 5 -5 15 -10 22 -55 65 -88
104 -106 121 -29 28 -68 60 -71 58 -2 -1 -22 7 -45 17 -83 35 -88 36 -89 4 -4
-77 -27 -185 -60 -282 -16 -47 -30 -90 -32 -96 -1 -5 -4 -12 -7 -15 -3 -3 -14
-23 -25 -45 -10 -22 -27 -52 -37 -66 -9 -14 -15 -29 -11 -33 3 -3 2 -6 -3 -6
-6 0 -21 -19 -34 -42 -13 -24 -30 -47 -37 -51 -7 -5 -11 -12 -8 -18 4 -5 1 -9
-5 -9 -6 0 -8 -4 -5 -10 3 -5 -1 -10 -9 -10 -9 0 -16 -4 -16 -8 0 -5 -21 -31
-47 -57 -27 -26 -41 -44 -33 -39 8 4 -2 -9 -23 -29 -20 -20 -42 -37 -48 -37
-6 0 -9 -7 -6 -14 4 -9 1 -13 -6 -10 -7 2 -33 -16 -60 -41 -26 -25 -47 -43
-47 -39 0 4 -9 -3 -20 -16 -11 -13 -20 -19 -20 -15 0 5 -10 -1 -22 -12 -13
-11 -48 -34 -78 -50 -109 -61 -210 -112 -210 -107 0 2 -10 -1 -22 -8 -13 -6
-32 -13 -42 -15 -11 -2 -25 -8 -33 -14 -7 -6 -13 -9 -13 -6 0 4 -17 0 -37 -7
-21 -7 -50 -16 -65 -20 -25 -6 -28 -4 -26 19 1 14 5 25 8 25 3 0 6 12 7 28 1
27 4 43 24 132 21 88 30 144 32 192 1 20 5 34 9 32 4 -3 6 4 5 15 -1 18 -5 17
-43 -10 -24 -16 -47 -29 -51 -29 -5 0 -18 -8 -29 -18 -10 -10 -23 -19 -27 -19
-10 -2 -160 -94 -167 -103 -3 -4 -12 -9 -21 -12 -24 -9 -19 17 17 101 8 18 12
36 10 39 -3 3 -23 -2 -43 -11 -32 -13 -63 -25 -83 -32 -3 -1 -26 -8 -52 -15
-27 -8 -48 -18 -48 -23 0 -4 -3 -6 -7 -4 -5 3 -19 0 -33 -6 -14 -5 -32 -11
-40 -13 -8 -2 -23 -7 -35 -13 -24 -11 -56 -23 -71 -26 -27 -6 -142 -50 -169
-65 -16 -9 -43 -20 -60 -24 -16 -4 -32 -11 -35 -14 -3 -4 -62 -36 -133 -71
-70 -36 -127 -68 -127 -73 0 -4 -5 -8 -11 -8 -21 0 -229 -147 -229 -162 0 -4
-5 -8 -11 -8 -14 0 -58 -39 -193 -168 -91 -86 -125 -105 -97 -54 6 11 9 55 7
98 -2 64 -8 88 -30 129 -32 58 -64 95 -82 95 -6 0 -15 7 -18 16 -3 8 -10 12
-16 9 -5 -3 -10 -2 -10 3 0 7 -62 30 -100 37 -3 1 -25 7 -50 14 -25 7 -49 14
-55 15 -5 1 -44 15 -85 31 -41 16 -78 28 -82 27 -5 -1 -8 2 -8 7 0 9 -57 27
-73 23 -5 -2 -6 1 -3 6 5 8 -25 27 -47 30 -4 1 -13 6 -20 12 -6 6 -48 33 -92
61 -282 182 -499 462 -596 774 -15 47 -49 229 -49 261 0 6 -27 -2 -77 -22 -18
-8 -36 -14 -39 -13 -4 0 -10 -3 -13 -8 -3 -4 -26 -24 -51 -42 -25 -19 -49 -42
-54 -50 -5 -8 -20 -26 -33 -39 -13 -12 -23 -26 -23 -31 0 -4 -14 -23 -31 -42
l-30 -34 -31 35 c-17 19 -58 71 -90 115 -33 44 -66 88 -74 98 -7 9 -11 17 -8
17 8 0 -45 72 -60 82 -6 4 -8 8 -4 8 4 0 -7 24 -26 53 -37 58 -106 187 -106
199 0 4 -12 33 -26 65 -41 94 -51 115 -75 173 -13 30 -28 58 -33 62 -6 4 -7 8
-2 8 10 0 -13 30 -23 30 -4 0 -24 -15 -46 -32z m-189 -1254 c-4 -12 -2 -15 9
-10 8 3 15 1 15 -5 0 -6 4 -8 9 -5 7 5 8 -14 3 -63 -2 -11 -5 -12 -13 -4 -8 8
-8 17 0 32 10 18 9 22 -13 31 -17 6 -24 14 -20 25 3 8 8 15 11 15 3 0 2 -7 -1
-16z m-18 -39 c-3 -3 -9 2 -12 12 -6 14 -5 15 5 6 7 -7 10 -15 7 -18z m164
-199 c12 -18 -1 -24 -27 -13 -14 7 -25 14 -25 17 0 10 45 6 52 -4z m6155
-1660 c-1 -6 4 -10 11 -8 6 1 12 -2 12 -8 0 -16 -15 -12 -33 8 -14 15 -14 19
-3 19 8 0 14 -5 13 -11z m-44 -4 c2 7 4 -1 3 -19 0 -17 -4 -29 -9 -26 -5 3 -6
8 -3 11 3 3 -2 15 -11 26 -15 17 -15 18 -1 8 13 -10 17 -10 21 0z m124 -17 c0
-8 -4 -12 -9 -9 -5 3 -6 10 -3 15 9 13 12 11 12 -6z m-86 -22 c13 -16 12 -17
-3 -4 -10 7 -18 15 -18 17 0 8 8 3 21 -13z m-4616 -2332 c3 -5 2 -12 -3 -15
-5 -3 -9 1 -9 9 0 17 3 19 12 6z m311 -1453 c1 -11 -3 -15 -12 -11 -17 6 -19
36 -2 31 6 -2 12 -11 14 -20z m2501 -80 c-3 -8 -6 -5 -6 6 -1 11 2 17 5 13 3
-3 4 -12 1 -19z"/>
<path d="M550 6352 c0 -5 7 -9 15 -9 8 0 12 4 9 9 -3 4 -9 8 -15 8 -5 0 -9 -4
-9 -8z"/>
<path d="M580 6310 c-9 -6 -10 -10 -3 -10 6 0 15 5 18 10 8 12 4 12 -15 0z"/>
<path d="M626 6312 c-3 -5 1 -9 9 -9 8 0 12 4 9 9 -3 4 -7 8 -9 8 -2 0 -6 -4
-9 -8z"/>
<path d="M620 6279 c0 -5 -4 -8 -9 -4 -15 9 -25 -15 -12 -28 9 -9 10 -7 5 8
-7 17 -5 18 7 8 12 -10 15 -8 16 8 1 10 0 19 -3 19 -2 0 -4 -5 -4 -11z"/>
<path d="M653 6275 c0 -8 4 -12 9 -9 5 3 6 10 3 15 -9 13 -12 11 -12 -6z"/>
<path d="M670 6250 c0 -5 5 -10 11 -10 5 0 7 5 4 10 -3 6 -8 10 -11 10 -2 0
-4 -4 -4 -10z"/>
<path d="M652 6230 c0 -14 2 -19 5 -12 2 6 2 18 0 25 -3 6 -5 1 -5 -13z"/>
<path d="M2170 2159 c0 -5 -4 -7 -10 -4 -5 3 -10 2 -10 -4 0 -5 8 -9 18 -8 18
1 27 27 10 27 -4 0 -8 -5 -8 -11z"/>
<path d="M5136 668 c3 -5 10 -6 15 -3 13 9 11 12 -6 12 -8 0 -12 -4 -9 -9z"/>
</g>
</svg>
